<!DOCTYPE svg PUBLIC "-//W3C//DTD SVG 1.1//EN" "http://www.w3.org/Graphics/SVG/1.1/DTD/svg11.dtd">
<!-- Uploaded to: SVG Repo, www.svgrepo.com, Transformed by: SVG Repo Mixer Tools -->
<svg fill="#000000" width="800px" height="800px" viewBox="0 0 24 24" id="hotel-3" data-name="Flat Color" xmlns="http://www.w3.org/2000/svg" class="icon flat-color">
<g id="SVGRepo_bgCarrier" stroke-width="0"/>
<g id="SVGRepo_tracerCarrier" stroke-linecap="round" stroke-linejoin="round"/>
<g id="SVGRepo_iconCarrier">
<path id="secondary" d="M8,8H5a2,2,0,0,0-2,2V21a1,1,0,0,0,1,1H8a1,1,0,0,0,1-1V9A1,1,0,0,0,8,8Z" style="fill: #ecd03b;"/>
<path id="primary" d="M21,20V7.72a2,2,0,0,0-1.37-1.9L8.32,2.05a1,1,0,0,0-.9.14A1,1,0,0,0,7,3V20H3a1,1,0,0,0,0,2H21a1,1,0,0,0,0-2Z" style="fill: #ae0071;"/>
<path id="secondary-2" data-name="secondary" d="M16,14H12a1,1,0,0,0-1,1v5h6V15A1,1,0,0,0,16,14Z" style="fill: #ecd03b;"/>
</g>
</svg>